# xmcd CD database file
#
# Track frame offsets:
#	150
#	16086
#	36086
#	50548
#	62935
#	76458
#	91882
#	104715
#	117803
#	128163
#	138878
#	154030
#	166045
#
# Disc length: 2399 seconds
#
# Revision: 0
# Processed by: cddbd v1.5.2PL0 Copyright (c) Steve Scherf et al.
# Submitted via: CDex 1.51
#
DISCID=a0095d0d
DTITLE=Os Bocaininhas - os bocaininhas
DYEAR=1900
DGENRE=Forró
TTITLE0=chá de nabo
TTITLE1=giripoca
TTITLE2=pau na raspadinha
TTITLE3=forró de cabo a rabo
TTITLE4=menininha
TTITLE5=amar amar
TTITLE6=fonte de esperança
TTITLE7=quanta saudade
TTITLE8=geitinho dela
TTITLE9=amassa amassa cinturinha
TTITLE10=festa de rodeio
TTITLE11=forrozão
TTITLE12=chora coração
EXTD=
EXTT0=
EXTT1=
EXTT2=
EXTT3=
EXTT4=
EXTT5=
EXTT6=
EXTT7=
EXTT8=
EXTT9=
EXTT10=
EXTT11=
EXTT12=
PLAYORDER=
